<svg xmlns="http://www.w3.org/2000/svg" width="200" height="60" viewBox="0 0 200 60"><defs><style>.a{fill:#98928e;}.b{fill:#050404;}.c{fill:#fff;}</style></defs><g transform="translate(-489.3 -522.4)"><path class="a" d="M682.185,582.4H496.217a7.158,7.158,0,0,1-6.917-7v-46a6.959,6.959,0,0,1,6.917-7H682.185a7.155,7.155,0,0,1,7.115,7v45.8a7.155,7.155,0,0,1-7.115,7Z" transform="translate(0)"/><path class="b" d="M687.326,574.6a5.766,5.766,0,0,1-5.731,5.8H495.631a5.766,5.766,0,0,1-5.731-5.8V528.8a5.766,5.766,0,0,1,5.731-5.8H681.595a5.766,5.766,0,0,1,5.731,5.8v45.8Z" transform="translate(0.588 0.6)"/><g transform="translate(508.31 531.6)"><path class="c" d="M524.643,542.724a8.616,8.616,0,0,1,4.158-7.2,8.889,8.889,0,0,0-6.931-3.8c-2.97-.4-5.743,1.8-7.327,1.8s-3.762-1.8-6.337-1.6a9.3,9.3,0,0,0-7.723,4.8c-3.366,5.8-.792,14.6,2.376,19.2s3.564,5,5.941,4.8,3.366-1.6,6.139-1.6,3.762,1.6,6.337,1.4,4.158-2.4,5.743-4.6a19.284,19.284,0,0,0,2.574-5.4,8.4,8.4,0,0,1-4.951-7.8Z" transform="translate(-498.9 -522.324)"/><path class="c" d="M512.256,533.2a8.657,8.657,0,0,0,1.98-6.2,8.688,8.688,0,0,0-5.545,3,8.252,8.252,0,0,0-1.98,6,7.105,7.105,0,0,0,5.545-2.8Z" transform="translate(-491.265 -527)"/></g><g transform="translate(551.874 549.395)"><path class="c" d="M537.734,556h-3.366l-1.782-5.8h-6.337l-1.782,5.8H521.1l6.337-20h3.96Zm-5.743-8.4-1.584-5.2-.99-3.8h0l-.99,3.8-1.584,5.2Z" transform="translate(-521.1 -535.795)"/><path class="c" d="M544.563,545.964a8.252,8.252,0,0,1-1.98,5.8,5.715,5.715,0,0,1-4.357,1.8,4.343,4.343,0,0,1-3.96-2h0v7.6H531.1v-15.6q0-2.4-.2-4.8h2.772v2.6h0a5.514,5.514,0,0,1,9.109-.6A8.051,8.051,0,0,1,544.563,545.964Zm-3.168.2a6.044,6.044,0,0,0-.99-3.4,3.158,3.158,0,0,0-2.772-1.4,3.346,3.346,0,0,0-2.178.8,3.607,3.607,0,0,0-1.188,2,4.236,4.236,0,0,0-.2,1v2.2a3.82,3.82,0,0,0,.99,2.6,3.607,3.607,0,0,0,5.347-.4,6.246,6.246,0,0,0,.99-3.4Z" transform="translate(-511.494 -533.158)"/><path class="c" d="M552.863,545.964a8.252,8.252,0,0,1-1.98,5.8,5.715,5.715,0,0,1-4.356,1.8,4.343,4.343,0,0,1-3.961-2h0v7.6H539.4v-15.6q0-2.4-.2-4.8h2.772v2.6h0a5.514,5.514,0,0,1,9.109-.6,8.051,8.051,0,0,1,1.782,5.2Zm-3.168.2a6.045,6.045,0,0,0-.99-3.4,3.158,3.158,0,0,0-2.772-1.4,3.346,3.346,0,0,0-2.178.8,3.606,3.606,0,0,0-1.188,2,4.23,4.23,0,0,0-.2,1v2.2a3.821,3.821,0,0,0,.99,2.6,3.606,3.606,0,0,0,5.347-.4,6.248,6.248,0,0,0,.792-3.4Z" transform="translate(-503.358 -533.158)"/><path class="c" d="M561.377,550.5a5.425,5.425,0,0,1-1.782,4.2,7.674,7.674,0,0,1-5.346,1.8,9.429,9.429,0,0,1-5.148-1.2l.792-2.6a8.645,8.645,0,0,0,4.554,1.2,4.326,4.326,0,0,0,2.772-.8,2.611,2.611,0,0,0,.99-2.2,2.816,2.816,0,0,0-.792-2,7.707,7.707,0,0,0-2.772-1.6q-5.149-2-5.149-5.8a5.022,5.022,0,0,1,1.782-4,7.082,7.082,0,0,1,4.753-1.6,9.426,9.426,0,0,1,4.554,1l-.792,2.6a7.664,7.664,0,0,0-3.762-1,3.736,3.736,0,0,0-2.574.8,2.481,2.481,0,0,0,.2,3.8l2.97,1.6a9.69,9.69,0,0,1,3.762,2.4A5.035,5.035,0,0,1,561.377,550.5Z" transform="translate(-493.654 -535.897)"/><path class="c" d="M565.011,543h-3.564v7q0,2.6,1.782,2.6h1.386V555l-2.376.4a3.742,3.742,0,0,1-2.97-1.2,5.641,5.641,0,0,1-.99-3.8V543H556.1v-2.4h2.178V538l3.168-1v3.6h3.564Z" transform="translate(-486.793 -534.795)"/><path class="c" d="M575.371,546.1a7.85,7.85,0,0,1-1.782,5.4,6.7,6.7,0,0,1-5.149,2.2,6.309,6.309,0,0,1-4.95-2.2,7.649,7.649,0,0,1-1.782-5.4,7.846,7.846,0,0,1,1.98-5.4,6.7,6.7,0,0,1,5.148-2.2,6.506,6.506,0,0,1,4.951,2.2A7.654,7.654,0,0,1,575.371,546.1Zm-3.366.2a6.452,6.452,0,0,0-.792-3.4,3.189,3.189,0,0,0-5.743,0,6.653,6.653,0,0,0-.792,3.4,6.452,6.452,0,0,0,.792,3.4,3.155,3.155,0,0,0,5.743,0,6.45,6.45,0,0,0,.792-3.4Z" transform="translate(-481.311 -533.296)"/><path class="c" d="M577.623,541.7h-.99a2.958,2.958,0,0,0-2.574,1.2,4.838,4.838,0,0,0-.792,2.8v7.6H570.1v-9.8q0-2.4-.2-4.6h2.772v2.8h0a5,5,0,0,1,1.584-2.2,3.737,3.737,0,0,1,2.376-.8h.792Z" transform="translate(-473.266 -533.095)"/><path class="c" d="M587.175,545.6a7.671,7.671,0,0,1-.2,1.4h-9.5a4.22,4.22,0,0,0,1.386,3.2,4.721,4.721,0,0,0,3.168,1,10.407,10.407,0,0,0,3.762-.6l.594,2.2a11.774,11.774,0,0,1-4.752.8,6.893,6.893,0,0,1-5.149-2,7.24,7.24,0,0,1-1.98-5.2,8.252,8.252,0,0,1,1.782-5.4,6.117,6.117,0,0,1,4.951-2.4,5.33,5.33,0,0,1,4.753,2.4A7.862,7.862,0,0,1,587.175,545.6Zm-2.97-.8a4.435,4.435,0,0,0-.594-2.4,2.766,2.766,0,0,0-2.574-1.4,2.963,2.963,0,0,0-2.574,1.4,4.827,4.827,0,0,0-.99,2.4h6.733Z" transform="translate(-468.759 -533.199)"/></g><g transform="translate(553.854 532.2)"><path class="c" d="M530.021,532.1a5.026,5.026,0,0,1-1.584,4,6.292,6.292,0,0,1-4.158,1.2H522.1v-9.6h2.772a5.7,5.7,0,0,1,3.762,1.2,4.622,4.622,0,0,1,1.386,3.2Zm-1.584,0a3.219,3.219,0,0,0-.9-2.691,3.149,3.149,0,0,0-2.665-.909h-1.188v7.4h.99a3.74,3.74,0,0,0,2.772-1,4.025,4.025,0,0,0,.99-2.8Z" transform="translate(-522.1 -526.903)"/><path class="c" d="M533.931,532.506a3.82,3.82,0,0,1-.99,2.6,3.349,3.349,0,0,1-2.574,1,3.152,3.152,0,0,1-2.376-1,3.908,3.908,0,0,1,0-5.2,3.348,3.348,0,0,1,2.574-1,3.151,3.151,0,0,1,2.574,1,3.826,3.826,0,0,1,.792,2.6Zm-1.584,0a3.226,3.226,0,0,0-.4-1.6,1.6,1.6,0,0,0-2.772,0,3.837,3.837,0,0,0,0,3.4,1.6,1.6,0,0,0,2.772,0A3.225,3.225,0,0,0,532.347,532.506Z" transform="translate(-517.297 -525.706)"/><path class="c" d="M541.4,528.9l-2.178,7h-1.386l-.99-3-.594-2.2h0a16.924,16.924,0,0,1-.594,2.2l-.99,3H533.28l-1.98-7h1.584l.792,3.4.4,2.2h0l.594-2.2.99-3.4h1.188l.99,3.4.594,2.4h0a22.426,22.426,0,0,1,.4-2.4l.792-3.4H541.4Z" transform="translate(-513.082 -525.7)"/><path class="c" d="M543.439,535.9h-1.584v-4q0-1.8-1.386-1.8a1.382,1.382,0,0,0-1.188.6,1.813,1.813,0,0,0-.4,1.2v4.2H537.3v-7h1.386v1.2h0l.792-.8,1.386-.4a2.166,2.166,0,0,1,1.584.6,3.22,3.22,0,0,1,.792,2.4Z" transform="translate(-507.201 -525.501)"/><path class="c" d="M543.384,537.7H541.8V527.3h1.584Z" transform="translate(-502.79 -527.3)"/><path class="c" d="M550.631,532.506a3.821,3.821,0,0,1-.99,2.6,3.349,3.349,0,0,1-2.574,1,3.153,3.153,0,0,1-2.376-1,3.908,3.908,0,0,1,0-5.2,3.348,3.348,0,0,1,2.574-1,3.151,3.151,0,0,1,2.574,1,3.826,3.826,0,0,1,.792,2.6Zm-1.584,0a3.226,3.226,0,0,0-.4-1.6,1.6,1.6,0,0,0-2.772,0,3.837,3.837,0,0,0,0,3.4,1.6,1.6,0,0,0,2.772,0A3.225,3.225,0,0,0,549.047,532.506Z" transform="translate(-500.928 -525.706)"/><path class="c" d="M553.747,536h-1.386v-1h0a2.368,2.368,0,0,1-1.98,1,2.167,2.167,0,0,1-1.584-.6,2.009,2.009,0,0,1-.594-1.4,2.207,2.207,0,0,1,.99-2,5.5,5.5,0,0,1,2.97-.6h0a1.231,1.231,0,0,0-1.386-1.4l-1.782.6-.4-1a4.518,4.518,0,0,1,2.376-.6q2.772,0,2.772,3v2.6a11.094,11.094,0,0,0,0,1.4Zm-1.584-2.4v-1q-2.574,0-2.574,1.4a1,1,0,0,0,.4.8h.792l.99-.4a1.4,1.4,0,0,0,.594-.8Z" transform="translate(-496.52 -525.601)"/><path class="c" d="M558.737,537.7h-1.386v-1.2h0a2.37,2.37,0,0,1-2.178,1.2,2.564,2.564,0,0,1-2.178-1,4.551,4.551,0,0,1,.2-5.4,2.761,2.761,0,0,1,2.178-1,2.171,2.171,0,0,1,1.98,1h0v-4h1.584v8.4A10.268,10.268,0,0,0,558.737,537.7Zm-1.584-3v-1.2a2.4,2.4,0,0,0,0-.4,1.8,1.8,0,0,0-.594-1l-.99-.4a1.577,1.577,0,0,0-1.386.6,3.019,3.019,0,0,0-.594,1.8,2.823,2.823,0,0,0,.4,1.8,1.675,1.675,0,0,0,2.574,0A2.008,2.008,0,0,0,557.153,534.7Z" transform="translate(-492.598 -527.3)"/><path class="c" d="M565.631,532.506a3.821,3.821,0,0,1-.99,2.6,3.348,3.348,0,0,1-2.574,1,3.152,3.152,0,0,1-2.376-1,3.908,3.908,0,0,1,0-5.2,3.348,3.348,0,0,1,2.574-1,3.151,3.151,0,0,1,2.574,1,3.826,3.826,0,0,1,.792,2.6Zm-1.584,0a3.226,3.226,0,0,0-.4-1.6,1.6,1.6,0,0,0-2.772,0,3.837,3.837,0,0,0,0,3.4,1.577,1.577,0,0,0,2.772,0A3.226,3.226,0,0,0,564.047,532.506Z" transform="translate(-486.225 -525.706)"/><path class="c" d="M569.539,535.9h-1.584v-4q0-1.8-1.386-1.8a1.381,1.381,0,0,0-1.188.6,1.812,1.812,0,0,0-.4,1.2v4.2H563.4v-7h1.386v1.2h0l.792-.8,1.386-.4a2.166,2.166,0,0,1,1.584.6,3.22,3.22,0,0,1,.792,2.4Z" transform="translate(-481.618 -525.501)"/><path class="c" d="M573.858,531h-1.782v3.4c0,.8.4,1.4.99,1.4h.792V537H572.67a1.774,1.774,0,0,1-1.386-.6,2.819,2.819,0,0,1-.594-2v-3.6h-.99v-1.2h.99v-1.2l1.584-.4v1.8h1.782V531Z" transform="translate(-475.443 -526.6)"/><path class="c" d="M578.841,537.7h-1.584v-4q0-2-1.386-2a1.589,1.589,0,0,0-1.386,1.2,2.024,2.024,0,0,0,0,.6v4.2H572.9V527.3h1.584v4.2h0a2.371,2.371,0,0,1,2.178-1.2,2.166,2.166,0,0,1,1.584.6,3.221,3.221,0,0,1,.792,2.4Z" transform="translate(-472.306 -527.3)"/><path class="c" d="M583.437,532.3a3.835,3.835,0,0,1,0,.8h-4.753a2.011,2.011,0,0,0,.594,1.6,2.358,2.358,0,0,0,1.584.4l1.98-.4v1l-2.376.4a3.348,3.348,0,0,1-2.574-1,3.621,3.621,0,0,1-.99-2.6,4.029,4.029,0,0,1,.792-2.6,2.961,2.961,0,0,1,2.376-1.2,2.566,2.566,0,0,1,2.376,1.2A3.819,3.819,0,0,1,583.437,532.3Zm-1.386-.4a2.213,2.213,0,0,0-.4-1.2,1.476,1.476,0,0,0-2.376,0,2.415,2.415,0,0,0-.4,1.2Z" transform="translate(-468.387 -525.904)"/></g></g></svg>