<svg xmlns="http://www.w3.org/2000/svg" width="30" height="30" viewBox="0 0 30 30"><defs><style>.a{fill:#fff;}.b{fill:#525b67;}</style></defs><circle class="a" cx="15" cy="15" r="15"/><path class="b" d="M195.928,430.035c-.477,2.482-1.05,4.869-2.769,6.11-.477-3.723.764-6.492,1.337-9.547-1.05-1.718.1-5.251,2.291-4.392s-2.291,6.4,1.05,7.065,4.869-6.014,2.769-8.21-9.069-.1-8.4,4.487c.191,1.146,1.337,1.432.477,2.959-2-.477-2.578-2-2.482-4.105a6.683,6.683,0,0,1,6.11-6.205c3.723-.382,7.255,1.337,7.828,4.964s-1.718,8.306-5.728,8.019a4.868,4.868,0,0,1-2.482-1.146Z" transform="translate(-182.189 -412.146)"/></svg>