<svg xmlns="http://www.w3.org/2000/svg" width="30" height="30" viewBox="0 0 30 30"><defs><style>.a{fill:#fff;}.b{fill:#525b67;}</style></defs><circle class="a" cx="15" cy="15" r="15"/><g transform="translate(7 7)"><path class="b" d="M446.024,139.4c2.136,0,2.389.008,3.233.047a4.433,4.433,0,0,1,1.485.276,2.644,2.644,0,0,1,1.518,1.518,4.43,4.43,0,0,1,.276,1.485c.038.844.047,1.1.047,3.233s-.008,2.389-.047,3.232a4.431,4.431,0,0,1-.276,1.486,2.644,2.644,0,0,1-1.518,1.518,4.416,4.416,0,0,1-1.485.275c-.844.038-1.1.047-3.233.047s-2.389-.008-3.232-.047a4.422,4.422,0,0,1-1.486-.275,2.649,2.649,0,0,1-1.518-1.518,4.416,4.416,0,0,1-.275-1.486c-.038-.843-.047-1.1-.047-3.232s.008-2.389.047-3.233a4.415,4.415,0,0,1,.275-1.485,2.649,2.649,0,0,1,1.518-1.518,4.44,4.44,0,0,1,1.486-.276c.843-.038,1.1-.047,3.232-.047m0-1.441c-2.173,0-2.445.01-3.3.048a5.878,5.878,0,0,0-1.942.372,4.09,4.09,0,0,0-2.339,2.34,5.855,5.855,0,0,0-.372,1.942c-.039.853-.048,1.125-.048,3.3s.009,2.445.048,3.3a5.855,5.855,0,0,0,.372,1.942,4.091,4.091,0,0,0,2.339,2.34,5.9,5.9,0,0,0,1.942.372c.853.038,1.126.048,3.3.048s2.445-.009,3.3-.048a5.9,5.9,0,0,0,1.942-.372,4.1,4.1,0,0,0,2.34-2.34,5.878,5.878,0,0,0,.372-1.942c.039-.853.048-1.125.048-3.3s-.009-2.445-.048-3.3a5.878,5.878,0,0,0-.372-1.942,4.1,4.1,0,0,0-2.34-2.34,5.878,5.878,0,0,0-1.942-.372c-.853-.038-1.125-.048-3.3-.048" transform="translate(-438.025 -137.962)"/><path class="b" d="M447.241,143.071a4.108,4.108,0,1,0,4.108,4.108,4.108,4.108,0,0,0-4.108-4.108m0,6.774a2.667,2.667,0,1,1,2.667-2.667,2.666,2.666,0,0,1-2.667,2.667" transform="translate(-439.241 -139.179)"/><path class="b" d="M454.789,142.558a.96.96,0,1,1-.96-.96.96.96,0,0,1,.96.96" transform="translate(-441.559 -138.828)"/></g></svg>