<svg xmlns="http://www.w3.org/2000/svg" width="30" height="30" viewBox="0 0 30 30"><defs><style>.a{fill:#fff;}.b{fill:#525b67;}</style></defs><circle class="a" cx="15" cy="15" r="15"/><path class="b" d="M177.08,1266.3c-.406-2.062-3.381-6.6-10.007-6.6s-9.871,4.537-9.871,8.249c0,0-.406,3.712,4.057,6.461a9.9,9.9,0,0,0,3.921,1.375s1.623,0,1.352,1.237a4.33,4.33,0,0,1-.135.963s-.135.55.135.687.947-.275.947-.275a34.637,34.637,0,0,0,7.032-5.087C177.351,1270.424,177.351,1268.361,177.08,1266.3Zm-13.793,4.262h-2.164c-.541,0-.406-.687-.406-.687v-3.849a.418.418,0,0,1,.079-.47.4.4,0,0,1,.462-.08.545.545,0,0,1,.541.55v3.575h1.352s.676,0,.676.412a.542.542,0,0,1-.541.413Zm2.028-.412a.409.409,0,0,1-.406.412h-.27a.409.409,0,0,1-.406-.412v-4.124a.409.409,0,0,1,.406-.412h.27a.409.409,0,0,1,.406.412Zm4.868-.137a.55.55,0,0,1-.27.413c-.27.137-.541,0-.947-.413l-1.893-2.475v2.475a.545.545,0,0,1-.541.55.4.4,0,0,1-.379-.059.416.416,0,0,1-.162-.354v-4.124a.548.548,0,0,1,.406-.55.932.932,0,0,1,.676.412l1.893,2.475v-2.337s0-.687.541-.687.541.55.541.687Zm3.245.55h-1.893a.67.67,0,0,1-.676-.687V1266.3a.682.682,0,0,1,.676-.687h1.623c.135,0,.811,0,.811.55a.533.533,0,0,1-.541.55h-1.623v.962h1.352s.676,0,.676.55a.546.546,0,0,1-.541.55h-1.487v.962h1.217c.135,0,.676,0,.676.413a.545.545,0,0,1-.406.412Z" transform="translate(-152.193 -1253.7)"/></svg>