<svg xmlns="http://www.w3.org/2000/svg" width="38" height="38" viewBox="0 0 38 38"><defs><style>.a{fill:#fff;}</style></defs><circle cx="19" cy="19" r="19"/><path class="a" d="M182.384,1268.059c-.514-2.612-4.282-8.359-12.675-8.359s-12.5,5.747-12.5,10.448c0,0-.514,4.7,5.139,8.184a12.536,12.536,0,0,0,4.967,1.741s2.055,0,1.713,1.567a5.484,5.484,0,0,1-.171,1.219s-.171.7.171.87,1.2-.348,1.2-.348a43.88,43.88,0,0,0,8.907-6.443C182.726,1273.283,182.726,1270.671,182.384,1268.059Zm-17.471,5.4h-2.741c-.685,0-.514-.871-.514-.871v-4.876a.529.529,0,0,1,.1-.595.508.508,0,0,1,.585-.1.691.691,0,0,1,.685.7v4.528h1.713s.856,0,.856.523a.687.687,0,0,1-.685.523Zm2.569-.522a.518.518,0,0,1-.514.522h-.343a.518.518,0,0,1-.514-.522v-5.224a.518.518,0,0,1,.514-.522h.343a.518.518,0,0,1,.514.522Zm6.166-.174a.7.7,0,0,1-.343.523c-.343.174-.685,0-1.2-.523l-2.4-3.135v3.135a.691.691,0,0,1-.685.7.507.507,0,0,1-.481-.074.527.527,0,0,1-.2-.448v-5.224a.7.7,0,0,1,.514-.7,1.18,1.18,0,0,1,.856.522l2.4,3.135v-2.96s0-.871.685-.871.685.7.685.871Zm4.111.7h-2.4a.848.848,0,0,1-.856-.871v-4.528a.864.864,0,0,1,.856-.871h2.055c.171,0,1.028,0,1.028.7a.675.675,0,0,1-.685.7H175.7v1.219h1.713s.856,0,.856.7a.691.691,0,0,1-.685.7H175.7v1.219h1.542c.171,0,.856,0,.856.523a.691.691,0,0,1-.514.522Z" transform="translate(-150.86 -1252.1)"/></svg>