<svg xmlns="http://www.w3.org/2000/svg" width="38" height="38" viewBox="0 0 38 38"><defs><style>.a{fill:#fff;}</style></defs><circle cx="19" cy="19" r="19"/><path class="a" d="M133.977,463.312H132.8a1.394,1.394,0,0,1-1.394-1.287h0a6.325,6.325,0,0,0-6.54-6.325H121.54a6.54,6.54,0,0,0-6.54,6.54v7.183a6.54,6.54,0,0,0,6.54,6.54h7.076a6.54,6.54,0,0,0,6.54-6.54v-4.61A1.5,1.5,0,0,0,133.977,463.312Zm-12.544-2.573h3.752a1.287,1.287,0,1,1,0,2.466h-3.752a1.287,1.287,0,1,1,0-2.466Zm7.5,10.078h-7.5a1.287,1.287,0,0,1,0-2.466h7.5a1.287,1.287,0,0,1,0,2.466Z" transform="translate(-106.133 -446.83)"/></svg>