<svg xmlns="http://www.w3.org/2000/svg" width="38" height="38" viewBox="0 0 38 38"><defs><style>.a{fill:#fff;}</style></defs><circle cx="19" cy="19" r="19"/><g transform="translate(8.867 8.867)"><path class="a" d="M448.158,139.788c2.706,0,3.026.011,4.1.059a5.616,5.616,0,0,1,1.881.35,3.349,3.349,0,0,1,1.923,1.923,5.611,5.611,0,0,1,.35,1.881c.049,1.069.059,1.39.059,4.1s-.011,3.026-.059,4.094a5.613,5.613,0,0,1-.35,1.882A3.349,3.349,0,0,1,454.134,156a5.6,5.6,0,0,1-1.881.349c-1.069.049-1.389.059-4.1.059s-3.026-.011-4.094-.059a5.6,5.6,0,0,1-1.882-.349,3.356,3.356,0,0,1-1.923-1.923,5.593,5.593,0,0,1-.349-1.882c-.049-1.068-.059-1.389-.059-4.094s.011-3.026.059-4.1a5.591,5.591,0,0,1,.349-1.881,3.356,3.356,0,0,1,1.923-1.923,5.624,5.624,0,0,1,1.882-.35c1.068-.048,1.389-.059,4.094-.059m0-1.826c-2.752,0-3.1.013-4.178.061a7.446,7.446,0,0,0-2.46.471,5.181,5.181,0,0,0-2.963,2.964,7.414,7.414,0,0,0-.471,2.46c-.05,1.081-.061,1.426-.061,4.178s.012,3.1.061,4.178a7.414,7.414,0,0,0,.471,2.46,5.181,5.181,0,0,0,2.963,2.964,7.472,7.472,0,0,0,2.46.471c1.081.049,1.426.06,4.178.06s3.1-.012,4.178-.06a7.472,7.472,0,0,0,2.46-.471,5.188,5.188,0,0,0,2.964-2.964,7.446,7.446,0,0,0,.471-2.46c.049-1.081.061-1.426.061-4.178s-.012-3.1-.061-4.178a7.446,7.446,0,0,0-.471-2.46,5.188,5.188,0,0,0-2.964-2.964,7.446,7.446,0,0,0-2.46-.471c-1.081-.049-1.426-.061-4.178-.061" transform="translate(-438.025 -137.962)"/><path class="a" d="M448.336,143.071a5.2,5.2,0,1,0,5.2,5.2,5.2,5.2,0,0,0-5.2-5.2m0,8.581a3.378,3.378,0,1,1,3.378-3.378,3.377,3.377,0,0,1-3.378,3.378" transform="translate(-438.203 -138.141)"/><path class="a" d="M455.3,142.814a1.216,1.216,0,1,1-1.216-1.216,1.216,1.216,0,0,1,1.216,1.216" transform="translate(-438.543 -138.089)"/></g></svg>