<svg xmlns="http://www.w3.org/2000/svg" width="38" height="38" viewBox="0 0 38 38"><defs><style>.a{fill:#fff;}</style></defs><circle cx="19" cy="19" r="19"/><path class="a" d="M197.458,433.206c-.6,3.144-1.33,6.167-3.507,7.739-.6-4.716.967-8.223,1.693-12.092-1.33-2.177.121-6.651,2.9-5.563s-2.9,8.1,1.33,8.948,6.167-7.618,3.507-10.4-11.488-.121-10.641,5.684c.242,1.451,1.693,1.814.6,3.749-2.539-.6-3.265-2.539-3.144-5.2a8.465,8.465,0,0,1,7.739-7.86c4.716-.484,9.19,1.693,9.916,6.288s-2.177,10.521-7.256,10.158a6.167,6.167,0,0,1-3.144-1.451Z" transform="translate(-180.056 -410.546)"/></svg>