<svg xmlns="http://www.w3.org/2000/svg" width="30" height="30" viewBox="0 0 30 30"><defs><style>.a{fill:#fff;}.b{fill:#525b67;fill-rule:evenodd;}</style></defs><circle class="a" cx="15" cy="15" r="15"/><path class="b" d="M801.292,12.213A2.322,2.322,0,0,0,799.068,11H786.132c-1.112.1-1.718.2-2.223,1.213s-.809,2.527-.809,5.356h0c0,2.83.3,4.447.809,5.356a2.322,2.322,0,0,0,2.223,1.213h12.936c1.112-.1,1.718-.2,2.223-1.213s.808-2.527.808-5.356h0C802.1,14.739,801.8,13.122,801.292,12.213ZM790.68,21.005V14.133l5.356,3.436Z" transform="translate(-777.1 -3)"/></svg>