<svg xmlns="http://www.w3.org/2000/svg" width="30" height="30" viewBox="0 0 30 30"><defs><style>.a{fill:#fff;}.b{fill:#525b67;}</style></defs><circle class="a" cx="15" cy="15" r="15"/><path class="b" d="M129.981,461.709h-.931a1.1,1.1,0,0,1-1.1-1.016h0a4.994,4.994,0,0,0-5.163-4.994h-2.624A5.163,5.163,0,0,0,115,460.863v5.671a5.163,5.163,0,0,0,5.163,5.163h5.586a5.163,5.163,0,0,0,5.163-5.163v-3.639a1.185,1.185,0,0,0-.931-1.185Zm-9.9-2.031h2.962a1.016,1.016,0,1,1,0,1.947h-2.962a1.016,1.016,0,1,1,0-1.947ZM126,467.634h-5.925a1.016,1.016,0,0,1,0-1.947H126a1.016,1.016,0,0,1,0,1.947Z" transform="translate(-108 -448.697)"/></svg>