<svg xmlns="http://www.w3.org/2000/svg" width="38" height="38" viewBox="0 0 38 38"><defs><style>.a{fill:#ff7b7b;}.b{fill:#fff;}</style></defs><circle class="a" cx="19" cy="19" r="19"/><path class="b" d="M333.4,69.1H346a3.7,3.7,0,0,1,3.7,3.7v4.3a3.7,3.7,0,0,1-3.7,3.7h-8.3l-1.2,2.3h0a1.2,1.2,0,0,1-2.1,0l-1.2-2.3a3.7,3.7,0,0,1-3.5-3.7V72.8a3.7,3.7,0,0,1,3.7-3.7ZM346,71H333.4a1.8,1.8,0,0,0-1.8,1.8v4.3a1.8,1.8,0,0,0,1.8,1.8h.3a1.2,1.2,0,0,1,1,.6l.7,1.5.7-1.5a1.2,1.2,0,0,1,1-.6H346a1.8,1.8,0,0,0,1.8-1.8V72.8A1.8,1.8,0,0,0,346,71Zm3.1,13h-8.5a1.1,1.1,0,0,0-1.1,1.1v3a1.1,1.1,0,0,0,1.1,1.1h5.6a1.1,1.1,0,0,1,1,.6l.3.6.3-.6a1.2,1.2,0,0,1,1-.6h.2a1.1,1.1,0,0,0,1.1-1.1v-3A1.1,1.1,0,0,0,349,84Zm-8.5-1.9h8.5A2.9,2.9,0,0,1,352,85v3a2.9,2.9,0,0,1-2.7,2.9l-.8,1.5a1.2,1.2,0,0,1-2.1,0l-.7-1.5h-5.2a3,3,0,0,1-2.9-2.9V85a2.9,2.9,0,0,1,2.9-2.9Z" transform="translate(-322 -62.1)"/></svg>