<svg xmlns="http://www.w3.org/2000/svg" width="38" height="38" viewBox="0 0 38 38"><defs><style>.a{fill:#f1aa4c;}.b{fill:#fff;}</style></defs><circle class="a" cx="19" cy="19" r="19"/><path class="b" d="M29.5,1666.8l-2.2-3-.3-.3v-3.6a1.5,1.5,0,0,0-1.5-1.5h-15a1.5,1.5,0,0,0-1.5,1.5v3.6l-.3.3-2.2,3a2.3,2.3,0,0,0-.5,1.3v.7a2.2,2.2,0,0,0,2.2,2.2h0v9.7a1.5,1.5,0,0,0,1.5,1.5H26.2a1.5,1.5,0,0,0,1.5-1.5V1671h0a2.2,2.2,0,0,0,2.2-2.2v-.7a2.3,2.3,0,0,0-.4-1.3Zm-4-6.9v3h-15v-3Zm-11.8,9.7H10.5l3-5.2h1.6Zm2.3-5.2h1.7v5.2H14.4Zm2.4,0H20l1.5,5.2H18.3Zm2.5,0h1.6l3,5.2H22.3Zm-13.3,4.5v-.7a.7.7,0,0,1,.1-.4l2.2-3a.7.7,0,0,1,.6-.3h2.1l-3,5.2H8.2a.7.7,0,0,1-.7-.8Zm13.5,12H15.3v-7.5h5.6Zm5.2,0H21.7v-7.5a.7.7,0,0,0-.7-.7H15.3a.7.7,0,0,0-.7.7v7.5H9.7v-9.7H26.2Zm2.2-12a.7.7,0,0,1-.7.7H26.3l-3-5.2h2.1a.7.7,0,0,1,.6.3l2.2,3a.7.7,0,0,1,.1.4Z" transform="translate(1 -1651.4)"/></svg>