<svg xmlns="http://www.w3.org/2000/svg" width="38" height="38" viewBox="0 0 38 38"><defs><style>.a{fill:#fff;fill-rule:evenodd;}</style></defs><circle cx="19" cy="19" r="19"/><path class="a" d="M806.143,12.536c-.64-1.152-1.408-1.408-2.816-1.536H786.94c-1.408.128-2.176.256-2.816,1.536s-1.024,3.2-1.024,6.785h0c0,3.584.384,5.633,1.024,6.785s1.408,1.408,2.816,1.536h16.386c1.408-.128,2.176-.256,2.816-1.536s1.024-3.2,1.024-6.785h0C807.167,15.737,806.783,13.688,806.143,12.536ZM792.7,23.673v-8.7l6.785,4.352Z" transform="translate(-775.5 -0.867)"/></svg>