<svg xmlns="http://www.w3.org/2000/svg" xmlns:xlink="http://www.w3.org/1999/xlink" width="200" height="60" viewBox="0 0 200 60"><defs><style>.a,.i,.j{fill:#050404;}.b{fill:#98928e;}.c,.d,.k{fill:#fff;}.c{stroke:#fff;stroke-miterlimit:10;stroke-width:0.15px;}.e{fill:url(#a);}.f{fill:url(#b);}.g{fill:url(#c);}.h{fill:url(#d);}.i{opacity:0.2;}.j{opacity:0.12;}.k{opacity:0.25;}</style><linearGradient id="a" x1="0.907" y1="45.073" x2="-0.376" y2="45.746" gradientUnits="objectBoundingBox"><stop offset="0" stop-color="#4985bc"/><stop offset="0.01" stop-color="#4a87bd"/><stop offset="0.26" stop-color="#54b0d1"/><stop offset="0.51" stop-color="#5dc1d0"/><stop offset="0.76" stop-color="#63c3c8"/><stop offset="1" stop-color="#66c4c6"/></linearGradient><linearGradient id="b" x1="1.028" y1="134.122" x2="-1.24" y2="134.122" gradientUnits="objectBoundingBox"><stop offset="0" stop-color="#f0d622"/><stop offset="0.41" stop-color="#f9a916"/><stop offset="0.78" stop-color="#fe8b13"/><stop offset="1" stop-color="#fe8012"/></linearGradient><linearGradient id="c" x1="0.862" y1="86.861" x2="-0.493" y2="88.618" gradientUnits="objectBoundingBox"><stop offset="0" stop-color="#fa2332"/><stop offset="1" stop-color="#af0a4b"/></linearGradient><linearGradient id="d" x1="-0.183" y1="86.631" x2="0.422" y2="87.42" gradientUnits="objectBoundingBox"><stop offset="0" stop-color="#418b56"/><stop offset="0.07" stop-color="#429457"/><stop offset="0.48" stop-color="#50b25b"/><stop offset="0.8" stop-color="#5cb758"/><stop offset="1" stop-color="#60b957"/></linearGradient></defs><g transform="translate(-489.5 -484.199)"><path class="a" d="M681.608,544H496.8a7.349,7.349,0,0,1-7.3-7.4v-45a7.45,7.45,0,0,1,2.207-5.3,7.244,7.244,0,0,1,5.288-2.1H682a7.244,7.244,0,0,1,5.36,2.164A7.455,7.455,0,0,1,689.5,491.8v45a7.444,7.444,0,0,1-2.414,5.324A7.234,7.234,0,0,1,681.608,544Z" transform="translate(0 0)"/><path class="b" d="M681.608,485.2a6.356,6.356,0,0,1,6.114,6.2v45a6.359,6.359,0,0,1-6.114,6.4H496.8a6.359,6.359,0,0,1-6.114-6.4V491.6a6.356,6.356,0,0,1,6.114-6.2H681.805m0-1.2H496.8a7.551,7.551,0,0,0-7.3,7.6v45a7.45,7.45,0,0,0,2.207,5.3,7.244,7.244,0,0,0,5.288,2.1H682a7.244,7.244,0,0,0,5.288-2.1,7.451,7.451,0,0,0,2.207-5.3V491.6a7.548,7.548,0,0,0-7.3-7.4Z" transform="translate(0 0.001)"/><g transform="translate(550.854 494.208)"><path class="c" d="M529.258,494.3a4.026,4.026,0,0,1-.99,3,4.519,4.519,0,0,1-5.375.549,4.619,4.619,0,0,1-2.113-5.021A4.567,4.567,0,0,1,524.9,489.3l1.782.4a3.168,3.168,0,0,1,1.386,1l-.792.8a2.759,2.759,0,0,0-2.376-1,2.956,2.956,0,0,0-2.376,1,3.626,3.626,0,0,0,0,5,3.744,3.744,0,0,0,2.376,1,3.152,3.152,0,0,0,2.574-1,2.411,2.411,0,0,0,.792-1.8H524.9v-1.2h4.356Z" transform="translate(-520.657 -489.107)"/><path class="c" d="M530.948,490.5h-3.96v2.8h3.762v1h-3.762v2.8h3.96v1.2H525.8v-9h5.148Z" transform="translate(-515.615 -489.107)"/><path class="c" d="M532.762,498.4h-1.188v-8H529v-1h6.337v1h-2.574Z" transform="translate(-512.478 -489.007)"/><path class="c" d="M534.4,498.4v-9h1.188v9Z" transform="translate(-507.185 -489.007)"/><path class="c" d="M539.362,498.4h-1.188v-8H535.6v-1h6.139v1h-2.574v8Z" transform="translate(-506.009 -489.007)"/><path class="c" d="M548.617,497.4a4.717,4.717,0,0,1-6.04.573,4.828,4.828,0,0,1-1.676-5.889,4.741,4.741,0,0,1,5.42-2.754A4.792,4.792,0,0,1,550,494.2,4.42,4.42,0,0,1,548.617,497.4Zm-5.545-.8a3.547,3.547,0,0,0,2.376,1,2.956,2.956,0,0,0,2.376-1,3.62,3.62,0,0,0,.99-2.6,3.016,3.016,0,0,0-.99-2.6,3.547,3.547,0,0,0-2.376-1,2.956,2.956,0,0,0-2.376,1,3.62,3.62,0,0,0-.99,2.6A3.016,3.016,0,0,0,543.073,496.6Z" transform="translate(-501.204 -489.204)"/><path class="c" d="M546.1,498.4v-9h1.386l4.356,7h0v-7h1.188v9h-1.188l-4.554-7.4h0v7.4Z" transform="translate(-495.717 -489.007)"/></g><path class="d" d="M560.991,504.05a6.4,6.4,0,1,0,6.337,6.4,6.233,6.233,0,0,0-1.795-4.587,6.106,6.106,0,0,0-4.542-1.813Zm0,10.2a4.009,4.009,0,0,1,0-7.8,3.548,3.548,0,0,1,2.671,1.192,3.623,3.623,0,0,1,.893,2.808,3.784,3.784,0,0,1-3.564,3.8Zm-13.861-10.2a6.4,6.4,0,1,0,6.337,6.4,6.233,6.233,0,0,0-1.795-4.587,6.106,6.106,0,0,0-4.542-1.813Zm0,10.2a4.009,4.009,0,0,1,0-7.8,3.548,3.548,0,0,1,2.671,1.192,3.623,3.623,0,0,1,.893,2.808,3.784,3.784,0,0,1-3.564,3.8Zm-16.436-8.2v2.6h6.337a5.629,5.629,0,0,1-1.386,3.4,6.5,6.5,0,0,1-4.951,2,6.9,6.9,0,0,1-4.972-2.12,7.566,7.566,0,0,1,0-10.159,6.9,6.9,0,0,1,4.972-2.12,7.288,7.288,0,0,1,4.95,2l1.98-2a9.451,9.451,0,0,0-6.733-2.6,9.864,9.864,0,0,0-9.728,4.5,10.084,10.084,0,0,0,0,10.806,9.864,9.864,0,0,0,9.728,4.5,8.473,8.473,0,0,0,6.733-2.8,9.05,9.05,0,0,0,2.376-6.2,5.658,5.658,0,0,0-.2-1.6Zm67.327,2a5.75,5.75,0,0,0-5.347-4,5.913,5.913,0,0,0-4.347,1.9,6.036,6.036,0,0,0-1.594,4.5,6.236,6.236,0,0,0,1.727,4.514,6.12,6.12,0,0,0,9.561-.914l-2.178-1.4a3.557,3.557,0,0,1-3.168,1.8,3.166,3.166,0,0,1-3.168-2l8.515-3.6Zm-8.515,2a3.59,3.59,0,0,1,3.168-3.8,2.57,2.57,0,0,1,2.376,1.4Zm-6.931,6.2h2.772v-18.8h-2.772Zm-4.356-11h0a4.926,4.926,0,0,0-3.366-1.4,6.371,6.371,0,0,0-6.139,6.4,6.234,6.234,0,0,0,1.726,4.514,6.109,6.109,0,0,0,4.412,1.886,4.337,4.337,0,0,0,3.168-1.4h.2v1a3.4,3.4,0,0,1-2.515,3.935,3.363,3.363,0,0,1-4.02-2.336l-2.376,1a6.138,6.138,0,0,0,5.743,3.8c3.168,0,5.941-2,5.941-6.6v-11.4h-2.772Zm-3.168,8.8a4.009,4.009,0,1,1,3.08-3.9A3.992,3.992,0,0,1,575.051,514.05Zm36.238-16.6h-6.733v18.8h2.772v-7h3.762a5.8,5.8,0,0,0,0-11.6Zm.2,9h-3.96v-6.4h3.96a3.184,3.184,0,0,1,3.168,3.2,3.383,3.383,0,0,1-3.366,3.4Zm17.03-2.6a4.942,4.942,0,0,0-4.95,2.8l2.574,1a2.569,2.569,0,0,1,2.574-1.4,2.779,2.779,0,0,1,2.97,2.4h0a5.9,5.9,0,0,0-2.772-.8c-2.772,0-5.347,1.6-5.347,4.2a4.418,4.418,0,0,0,1.415,3.054,4.331,4.331,0,0,0,3.14,1.146,4.145,4.145,0,0,0,3.564-1.8h.2v1.6h2.772v-7a5.618,5.618,0,0,0-2.038-4.005,5.506,5.506,0,0,0-4.3-1.195Zm-.4,10.4c-.792,0-2.178-.4-2.178-1.6s1.584-2,2.97-2a5.7,5.7,0,0,1,2.574.6,3.376,3.376,0,0,1-3.564,3Zm15.644-10-3.168,8h-.2l-3.168-8h-2.97l4.951,11.4-2.772,6.2h2.772l7.525-17.6Zm-24.95,12h2.574v-18.8h-2.772Z" transform="translate(28.704 12.746)"/><g transform="translate(504.147 494.881)"><path class="e" d="M497.5,489.8a3.021,3.021,0,0,0-.594,2V525a3.018,3.018,0,0,0,.792,2.2h.2l18.416-18.6h0L497.5,490Z" transform="translate(-496.897 -489.282)"/><path class="f" d="M512.739,508.6l-6.139-6.2h0l6.139-6.2h.2l7.327,4.2a2.2,2.2,0,0,1,0,4.4l-7.327,4Z" transform="translate(-487.386 -482.883)"/><path class="g" d="M522.151,505.5l-6.337-6.4L497.2,517.9c.792.8,1.782.8,3.168.2l21.782-12.6" transform="translate(-496.6 -479.983)"/><path class="h" d="M522.151,502.459l-21.782-12.4a2.359,2.359,0,0,0-3.168.2l18.614,18.6Z" transform="translate(-496.6 -489.541)"/><g transform="translate(0 24.918)"><path class="i" d="M521.854,502.4,500.27,514.6a2.358,2.358,0,0,1-2.97,0h0a2.358,2.358,0,0,0,2.97,0L521.854,502Z" transform="translate(-496.502 -502)"/><path class="j" d="M497.5,509.4a3.02,3.02,0,0,1-.594-2h0a3.018,3.018,0,0,0,.792,2.2h-.2Z" transform="translate(-496.897 -496.6)"/></g><path class="j" d="M517.027,501.1l-7.327,4.2h.2l7.327-4.2a2.4,2.4,0,0,0,1.584-2h0A3.4,3.4,0,0,1,517.027,501.1Z" transform="translate(-484.347 -479.983)"/><path class="k" d="M500.572,490.057l28.911,16.6c.792.6,1.584,1.2,1.584,2h0a2.4,2.4,0,0,0-1.386-2l-28.911-16.6c-1.98-1.2-3.762-.2-3.762,2h0C496.809,490.057,498.592,488.857,500.572,490.057Z" transform="translate(-496.803 -489.539)"/></g></g></svg>