<svg xmlns="http://www.w3.org/2000/svg" width="16" height="16" viewBox="0 0 16 16"><defs><style>.a{fill:none;}</style></defs><rect class="a" width="16" height="16"/><g transform="translate(3 3)"><path d="M443.024,138.863c1.335,0,1.493.005,2.021.029a2.771,2.771,0,0,1,.928.173,1.653,1.653,0,0,1,.949.949,2.769,2.769,0,0,1,.172.928c.024.528.029.686.029,2.021s-.005,1.493-.029,2.02a2.77,2.77,0,0,1-.172.929,1.652,1.652,0,0,1-.949.949,2.761,2.761,0,0,1-.928.172c-.528.024-.685.029-2.021.029s-1.493-.005-2.02-.029a2.765,2.765,0,0,1-.929-.172,1.656,1.656,0,0,1-.949-.949,2.761,2.761,0,0,1-.172-.929c-.024-.527-.029-.685-.029-2.02s.005-1.493.029-2.021a2.76,2.76,0,0,1,.172-.928,1.656,1.656,0,0,1,.949-.949,2.775,2.775,0,0,1,.929-.173c.527-.024.685-.029,2.02-.029m0-.9c-1.358,0-1.528.006-2.061.03a3.673,3.673,0,0,0-1.214.232,2.557,2.557,0,0,0-1.462,1.462,3.66,3.66,0,0,0-.232,1.214c-.024.533-.03.7-.03,2.061s.006,1.528.03,2.061a3.66,3.66,0,0,0,.232,1.214,2.557,2.557,0,0,0,1.462,1.462,3.687,3.687,0,0,0,1.214.232c.533.024.7.03,2.061.03s1.528-.006,2.061-.03a3.687,3.687,0,0,0,1.214-.232,2.56,2.56,0,0,0,1.462-1.462,3.674,3.674,0,0,0,.232-1.214c.024-.533.03-.7.03-2.061s-.006-1.528-.03-2.061a3.674,3.674,0,0,0-.232-1.214,2.559,2.559,0,0,0-1.462-1.462,3.673,3.673,0,0,0-1.214-.232c-.533-.024-.7-.03-2.061-.03" transform="translate(-438.025 -137.962)"/><path d="M445.7,143.071a2.567,2.567,0,1,0,2.567,2.567,2.568,2.568,0,0,0-2.567-2.567m0,4.234a1.667,1.667,0,1,1,1.667-1.667,1.667,1.667,0,0,1-1.667,1.667" transform="translate(-440.7 -140.638)"/><path d="M454.069,142.2a.6.6,0,1,1-.6-.6.6.6,0,0,1,.6.6" transform="translate(-445.801 -139.867)"/></g></svg>