<svg xmlns="http://www.w3.org/2000/svg" width="30" height="30" viewBox="0 0 30 30"><defs><style>.a,.c{fill:none;}.b,.e{fill:#525b67;}.c{stroke:#525b67;stroke-width:2px;}.d,.e{stroke:none;}</style></defs><rect class="a" width="30" height="30"/><g transform="translate(-3.001 -2.57)"><path class="b" d="M25.845,22.943H0V0H5.245A10.869,10.869,0,0,0,4.216,2.293H2.459V20.647H23.38V2.293H21.627A10.84,10.84,0,0,0,20.6,0h5.247V22.938h0Z" transform="translate(5.001 8.628)"/><g class="c" transform="translate(9.111 3.57)"><ellipse class="d" cx="8.812" cy="10.402" rx="8.812" ry="10.402"/><ellipse class="a" cx="8.812" cy="10.402" rx="7.812" ry="9.402"/></g><path class="b" d="M7.073-7.341a3.893,3.893,0,0,0-2.378-1.2V-10.08H3.513v1.555a2.652,2.652,0,0,0-2.452,2.67c0,2.945,4.564,2.56,4.564,4.79C5.625-.17,5.064.367,3.912.367a4.1,4.1,0,0,1-2.5-.991L.648.463A5.484,5.484,0,0,0,3.513,1.647V3.175H4.695V1.606a2.746,2.746,0,0,0,2.57-2.78C7.265-4.382,2.7-3.914,2.7-5.923c0-.84.591-1.335,1.536-1.335a2.671,2.671,0,0,1,1.95.84Z" transform="translate(14.198 17.962)"/><g class="a" transform="translate(5.001 16.66)"><path class="d" d="M25.845,8.027H12.937a8.669,8.669,0,0,0,5.789-2.3H23.38V2.291H21.195A11.236,11.236,0,0,0,21.924,0h3.921V8.026Zm-13.118,0H0V0H3.919A11.165,11.165,0,0,0,4.65,2.291H2.459v3.44H7.117a8.691,8.691,0,0,0,5.61,2.293Z"/><path class="e" d="M 25.84502792358398 8.027156829833984 L 25.84387016296387 8.027156829833984 L 12.93687057495117 8.027156829833984 C 15.04002857208252 8.021788597106934 17.09613418579102 7.208104133605957 18.72545051574707 5.731367588043213 L 23.38039779663086 5.731367588043213 L 23.38039779663086 2.291472673416138 L 21.19460868835449 2.291472673416138 C 21.5147647857666 1.569735884666443 21.76029205322266 0.7987358570098877 21.92434501647949 -1.009288553177612e-06 L 25.84502792358398 -1.009288553177612e-06 L 25.84502792358398 8.026103973388672 L 25.84502792358398 8.027156829833984 Z M 12.7268705368042 8.027156829833984 L -2.379808938712813e-05 8.027156829833984 L -2.379808938712813e-05 -1.009288553177612e-06 L 3.91950249671936 -1.009288553177612e-06 C 4.08013391494751 0.7880516052246094 4.325660228729248 1.558998942375183 4.650397300720215 2.291472673416138 L 2.458870887756348 2.291472673416138 L 2.458870887756348 5.731367588043213 L 7.117291927337646 5.731367588043213 C 8.696081161499023 7.16210412979126 10.68797588348389 7.975841045379639 12.7268705368042 8.023946762084961 L 12.7268705368042 8.027156829833984 Z"/></g><g class="a" transform="translate(8.692 4.042)"><path class="d" d="M9.23,20.646C4.14,20.646,0,16.014,0,10.322S4.14,0,9.23,0s9.232,4.63,9.232,10.322S14.319,20.646,9.23,20.646Zm0-18.352c-3.731,0-6.767,3.6-6.767,8.028S5.5,18.351,9.23,18.351,16,14.749,16,10.322,12.962,2.294,9.23,2.294Z"/><path class="e" d="M 9.229611396789551 20.6458683013916 C 4.139769077301025 20.6458683013916 -2.031627445830964e-05 16.01365852355957 -2.031627445830964e-05 10.32186794281006 C -2.031627445830964e-05 4.630025863647461 4.139769077301025 2.60624128713971e-05 9.229611396789551 2.60624128713971e-05 C 14.31945323944092 2.60624128713971e-05 18.4615592956543 4.630025863647461 18.4615592956543 10.32186794281006 C 18.4615592956543 16.01365852355957 14.31945323944092 20.6458683013916 9.229611396789551 20.6458683013916 Z M 9.229611396789551 2.293605089187622 C 5.498295307159424 2.293605089187622 2.462295532226563 5.894973278045654 2.462295532226563 10.32186794281006 C 2.462295532226563 14.74871063232422 5.498295307159424 18.35113143920898 9.229611396789551 18.35113143920898 C 12.96208477020264 18.35113143920898 15.99924278259277 14.74871063232422 15.99924278259277 10.32186794281006 C 15.99924278259277 5.894973278045654 12.96208477020264 2.293605089187622 9.229611396789551 2.293605089187622 Z"/></g></g></svg>