<svg xmlns="http://www.w3.org/2000/svg" width="28" height="28" viewBox="0 0 28 28"><defs><style>.a{fill:#a7acb2;}.b{fill:none;}</style></defs><path class="a" d="M140.9,25.56l-.335-.144c-.1-.048-9.439-5.315-10.973-9.673s-.383-6.177.623-7.614a6.278,6.278,0,0,1,4.839-2.73A6.832,6.832,0,0,1,140.9,8.034,6.832,6.832,0,0,1,146.744,5.4a6.278,6.278,0,0,1,4.839,2.73c1.006,1.389,1.917,3.879.623,7.614s-10.877,9.673-10.973,9.673ZM135.052,6.884a4.84,4.84,0,0,0-3.642,2.107c-.815,1.149-1.533,3.113-.431,6.273s8.241,7.758,9.918,8.667c1.629-.91,8.769-5.411,9.919-8.667s.383-5.124-.431-6.273a4.84,4.84,0,0,0-3.642-2.107,5.234,5.234,0,0,0-5.175,2.969l-.671,1.58-.671-1.58A5.273,5.273,0,0,0,135.052,6.884Z" transform="translate(-126.845 -1.4)"/><rect class="b" width="28" height="28"/></svg>