<svg xmlns="http://www.w3.org/2000/svg" width="30" height="30" viewBox="0 0 30 30"><defs><style>.a{fill:#525b67;}.b{fill:none;}</style></defs><g transform="translate(3.214 3.213)"><path class="a" d="M0,6.163a6.161,6.161,0,1,1,6.162,6.16A6.162,6.162,0,0,1,0,6.163Zm2.6,0A3.563,3.563,0,1,0,6.162,2.6,3.565,3.565,0,0,0,2.6,6.163Z" transform="translate(5.357)"/><path class="a" d="M22.15,12.588H20.828c0-5.42-4.05-9.813-9.04-9.813S2.743,7.168,2.743,12.588H0C0,5.637,5.278,0,11.785,0S23.571,5.637,23.571,12.588Z" transform="translate(0 10.984)"/></g><rect class="b" width="30" height="30"/></svg>