<svg xmlns="http://www.w3.org/2000/svg" width="28" height="28" viewBox="0 0 28 28"><defs><style>.a{fill:#fff;}.b{fill:none;}</style></defs><path class="a" d="M11.009,0a10.986,10.986,0,0,1,7.782,3.2h.046a10.893,10.893,0,0,1,1.236,13.962v3.891a.87.87,0,0,1-.824.961h-8.24a10.986,10.986,0,0,1-7.736-3.25h0a10.987,10.987,0,0,1,0-15.564h0A10.941,10.941,0,0,1,11.009,0ZM6.431,10.254h0a1.105,1.105,0,0,0-1.556,0,1.053,1.053,0,0,0-.32.778,1.1,1.1,0,0,0,1.1,1.1,1.1,1.1,0,0,0,.732-1.877Zm5.31,0h0a1.1,1.1,0,0,0-1.556,0,1.053,1.053,0,0,0-.32.778,1.1,1.1,0,0,0,2.2,0A1.053,1.053,0,0,0,11.741,10.254Zm5.31,0h0a1.1,1.1,0,0,0-1.877.778,1.144,1.144,0,0,0,.32.778,1.1,1.1,0,0,0,1.923-.778,1.053,1.053,0,0,0-.32-.778Zm.732-6h0a9.567,9.567,0,0,0-13.5,0h0a9.567,9.567,0,0,0,0,13.55h0a9.567,9.567,0,0,0,6.729,2.747h7.6V17.166a.87.87,0,0,1,.137-.5,9.247,9.247,0,0,0,1.373-2.655A9.613,9.613,0,0,0,17.83,4.3Z" transform="translate(2.959 3)"/><rect class="b" width="28" height="28"/></svg>