<svg xmlns="http://www.w3.org/2000/svg" width="20" height="20" viewBox="0 0 20 20"><defs><style>.a{fill:none;}</style></defs><g transform="translate(-280 -457)"><path d="M762.186,157a1.178,1.178,0,0,1,.566.209l4.251,4.25a.7.7,0,0,1,0,.991.7.7,0,0,1-.986,0l-3.109-3.1V168.3a.7.7,0,1,1-1.4,0v-8.949l-3.109,3.1a.7.7,0,0,1-.986,0,.7.7,0,0,1,0-.991l4.251-4.25A.957.957,0,0,1,762.186,157Z" transform="translate(-472.207 303)"/><path d="M6416,11878v-6h1.5v4.5h11v-4.5h1.5v6Z" transform="translate(-6132.999 -11403)"/></g><rect class="a" width="20" height="20"/></svg>