<svg xmlns="http://www.w3.org/2000/svg" width="30" height="30" viewBox="0 0 30 30"><defs><style>.a{fill:none;}.b,.c,.e{fill:#525b67;}.c{stroke:#525b67;stroke-width:2px;}.d,.e{stroke:none;}</style></defs><rect class="a" width="30" height="30"/><g transform="translate(-1543.012 -134.011)"><path class="b" d="M7.587-10.365A3.986,3.986,0,0,0,5.1-11.709V-13.44H3.862v1.746A2.906,2.906,0,0,0,1.3-8.7c0,3.307,4.775,2.875,4.775,5.378,0,1-.587,1.607-1.793,1.607A4.134,4.134,0,0,1,1.668-2.823L.864-1.6a5.538,5.538,0,0,0,3,1.329V1.443H5.1V-.319A3.009,3.009,0,0,0,7.788-3.441c0-3.6-4.775-3.075-4.775-5.332a1.436,1.436,0,0,1,1.607-1.5,2.708,2.708,0,0,1,2.04.943Z" transform="translate(1553.92 158.55)"/><g class="a" transform="translate(53 -28.204)"><path class="d" d="M1505.108,168.984c6.019,0,9.872,5.085,10.9,11.115,1.031,6.061-1.764,11.115-10.9,11.115s-11.912-5.052-10.9-11.115C1495.236,173.961,1499.089,168.984,1505.108,168.984Z"/><path class="e" d="M 1505.108154296875 170.9844970703125 C 1502.814208984375 170.9844970703125 1500.846923828125 171.8616027832031 1499.26123046875 173.5914916992188 C 1497.73486328125 175.2566528320313 1496.641479492188 177.6850280761719 1496.182739257813 180.4295043945313 C 1495.877197265625 182.2562866210938 1495.83740234375 184.8168640136719 1497.381958007813 186.6411743164063 C 1498.0400390625 187.4184417724609 1498.95703125 188.0292816162109 1500.107421875 188.4566040039063 C 1501.461791992188 188.9597015380859 1503.144287109375 189.2148132324219 1505.108154296875 189.2148132324219 C 1507.07568359375 189.2148132324219 1508.761596679688 188.9587097167969 1510.118774414063 188.4535522460938 C 1511.271728515625 188.0243988037109 1512.190307617188 187.4112854003906 1512.848754882813 186.6312408447266 C 1514.390014648438 184.8054962158203 1514.344482421875 182.2540740966797 1514.035034179688 180.4352416992188 C 1513.5732421875 177.7219696044922 1512.477905273438 175.3041839599609 1510.950927734375 173.6272277832031 C 1509.35400390625 171.8736572265625 1507.388305664063 170.9844970703125 1505.108154296875 170.9844970703125 M 1505.108154296875 168.9844970703125 C 1511.127197265625 168.9844970703125 1514.980224609375 174.0692291259766 1516.006591796875 180.0996551513672 C 1517.0380859375 186.1602325439453 1514.243041992188 191.2148132324219 1505.108154296875 191.2148132324219 C 1495.9736328125 191.2148132324219 1493.196166992188 186.1631317138672 1494.210083007813 180.0996551513672 C 1495.236328125 173.9609222412109 1499.08935546875 168.9844970703125 1505.108154296875 168.9844970703125 Z"/></g><g class="a" transform="translate(52.765 -28)"><path class="d" d="M1502.828,168.781s-4.349-4.887,0-5.558,7.425.279,6.707,2.382a12.644,12.644,0,0,1-2.515,3.97S1503.94,170.222,1502.828,168.781Z"/><path class="e" d="M 1505.486450195313 167.7198181152344 C 1505.671752929688 167.7198181152344 1505.848266601563 167.7103271484375 1506.004516601563 167.6970825195313 C 1506.441528320313 167.1634979248047 1507.112548828125 166.2579803466797 1507.514038085938 165.2950134277344 C 1507.162475585938 165.1645050048828 1506.49072265625 165.0111541748047 1505.414184570313 165.0111541748047 C 1504.7138671875 165.0111541748047 1503.946166992188 165.07470703125 1503.132568359375 165.1999664306641 C 1503.062866210938 165.210693359375 1503.002685546875 165.2222747802734 1502.951171875 165.2338409423828 C 1503.024536132813 165.4678192138672 1503.182983398438 165.8374786376953 1503.499877929688 166.3385162353516 C 1503.898559570313 166.9690551757813 1504.320678710938 167.4496612548828 1504.322021484375 167.4512634277344 L 1504.36865234375 167.503662109375 L 1504.394287109375 167.5369110107422 C 1504.446166992188 167.5685577392578 1504.733642578125 167.7198181152344 1505.486450195313 167.7198181152344 M 1505.486450195313 169.7198181152344 C 1504.546142578125 169.7198181152344 1503.413940429688 169.5402984619141 1502.828002929688 168.7808074951172 C 1502.828002929688 168.7808074951172 1498.478759765625 163.8934631347656 1502.828002929688 163.2233123779297 C 1503.755981445313 163.0803985595703 1504.62646484375 163.0111694335938 1505.414184570313 163.0111694335938 C 1508.317626953125 163.0111694335938 1510.10009765625 163.9512176513672 1509.534545898438 165.6051635742188 C 1508.815795898438 167.7077178955078 1507.01953125 169.5751037597656 1507.01953125 169.5751037597656 C 1507.01953125 169.5751037597656 1506.330322265625 169.7198181152344 1505.486450195313 169.7198181152344 Z"/></g><g class="c" transform="translate(1553.916 139.984)"><rect class="d" width="8.394" height="2.386" rx="1.193"/><rect class="a" x="1" y="1" width="6.394" height="0.386" rx="0.193"/></g></g></svg>