<svg xmlns="http://www.w3.org/2000/svg" width="30" height="30" viewBox="0 0 30 30"><defs><style>.a{fill:none;}.b,.d{fill:#525b67;}.c,.d{stroke:none;}</style></defs><rect class="a" width="30" height="30"/><g class="b" transform="translate(-11916 -11571)"><path class="c" d="M 11930.9794921875 11598.9990234375 C 11927.5146484375 11598.9931640625 11924.2578125 11597.6416015625 11921.8076171875 11595.1923828125 C 11919.3583984375 11592.7421875 11918.0068359375 11589.4853515625 11918.0009765625 11586.0205078125 C 11918.0126953125 11593.171875 11923.828125 11598.9873046875 11930.9794921875 11598.9990234375 Z M 11931.0224609375 11598.9990234375 C 11938.173828125 11598.9873046875 11943.9892578125 11593.171875 11944.0009765625 11586.0205078125 C 11943.9951171875 11589.486328125 11942.6435546875 11592.7431640625 11940.193359375 11595.1923828125 C 11937.7431640625 11597.6416015625 11934.486328125 11598.9931640625 11931.0224609375 11598.9990234375 Z M 11944.0009765625 11585.9775390625 C 11943.9892578125 11578.826171875 11938.173828125 11573.0107421875 11931.0224609375 11572.9990234375 C 11934.486328125 11573.0048828125 11937.7431640625 11574.3564453125 11940.193359375 11576.806640625 C 11942.6435546875 11579.2568359375 11943.9951171875 11582.513671875 11944.0009765625 11585.9775390625 Z M 11918.0009765625 11585.9775390625 C 11918.0068359375 11582.513671875 11919.3583984375 11579.2568359375 11921.8076171875 11576.806640625 C 11924.2568359375 11574.3564453125 11927.513671875 11573.0048828125 11930.9794921875 11572.9990234375 C 11923.828125 11573.0107421875 11918.0126953125 11578.826171875 11918.0009765625 11585.9775390625 Z"/><path class="d" d="M 11931.0009765625 11599.9990234375 C 11927.2607421875 11599.9990234375 11923.7451171875 11598.54296875 11921.1005859375 11595.8994140625 C 11918.45703125 11593.2548828125 11917.0009765625 11589.7392578125 11917.0009765625 11585.9990234375 C 11917.0009765625 11582.259765625 11918.45703125 11578.744140625 11921.1005859375 11576.099609375 C 11923.744140625 11573.455078125 11927.2607421875 11571.9990234375 11931.0009765625 11571.9990234375 C 11934.740234375 11571.9990234375 11938.255859375 11573.455078125 11940.900390625 11576.099609375 C 11943.544921875 11578.744140625 11945.0009765625 11582.259765625 11945.0009765625 11585.9990234375 C 11945.0009765625 11589.7392578125 11943.544921875 11593.255859375 11940.900390625 11595.8994140625 C 11938.255859375 11598.54296875 11934.740234375 11599.9990234375 11931.0009765625 11599.9990234375 Z M 11931.0009765625 11573.9990234375 C 11924.3837890625 11573.9990234375 11919.0009765625 11579.3818359375 11919.0009765625 11585.9990234375 C 11919.0009765625 11592.6162109375 11924.3837890625 11597.9990234375 11931.0009765625 11597.9990234375 C 11937.6181640625 11597.9990234375 11943.0009765625 11592.6162109375 11943.0009765625 11585.9990234375 C 11943.0009765625 11579.3818359375 11937.6181640625 11573.9990234375 11931.0009765625 11573.9990234375 Z"/></g><path class="b" d="M8.683-9.863a4.636,4.636,0,0,0-2.894-1.564V-13.44H4.351v2.031A3.38,3.38,0,0,0,1.367-7.921c0,3.847,5.555,3.344,5.555,6.256C6.922-.5,6.239.2,4.837.2A4.809,4.809,0,0,1,1.8-1.091L.864.329A6.442,6.442,0,0,0,4.351,1.875v2H5.789V1.821A3.5,3.5,0,0,0,8.917-1.81c0-4.188-5.555-3.577-5.555-6.2A1.67,1.67,0,0,1,5.232-9.755,3.15,3.15,0,0,1,7.6-8.658Z" transform="translate(9.693 19.489)"/></svg>