<svg xmlns="http://www.w3.org/2000/svg" width="30" height="30" viewBox="0 0 30 30"><defs><style>.a,.c,.d{fill:none;}.b,.f{fill:#525b67;}.c,.d{stroke:#525b67;}.c{stroke-width:1.5px;}.d{stroke-width:2px;}.e,.f{stroke:none;}</style></defs><rect class="a" width="30" height="30"/><g transform="translate(-1 -1)"><g class="b" transform="translate(4 4.333)"><path class="e" d="M 22.5 24.66709899902344 L 1.999799847602844 24.66709899902344 C 1.886540412902832 24.66709899902344 1.77760112285614 24.64816284179688 1.676015853881836 24.61330032348633 L 2.333699941635132 24.61330032348633 L 22.16699981689453 24.61330032348633 L 22.82378387451172 24.61330032348633 C 22.72219848632813 24.64816284179688 22.61325836181641 24.66709899902344 22.5 24.66709899902344 Z M 1.333699822425842 24.41228485107422 C 1.129019141197205 24.22907829284668 0.9999998807907104 23.96296501159668 0.9999998807907104 23.66729927062988 L 0.9999998807907104 1.999799489974976 C 0.9999998807907104 1.704133868217468 1.129019141197205 1.438021063804626 1.333699822425842 1.254814982414246 L 1.333699822425842 2.053799390792847 L 1.333699822425842 23.61330032348633 L 1.333699822425842 24.41228485107422 Z M 23.16699981689453 24.41147804260254 L 23.16699981689453 23.61330032348633 L 23.16699981689453 2.053799390792847 L 23.16699981689453 1.255621552467346 C 23.37115478515625 1.438801407814026 23.49979972839355 1.70457136631012 23.49979972839355 1.999799489974976 L 23.49979972839355 23.66729927062988 C 23.49979972839355 23.96252822875977 23.37115478515625 24.22829818725586 23.16699981689453 24.41147804260254 Z M 22.82378387451172 1.053799510002136 L 22.16699981689453 1.053799510002136 L 20.83329963684082 1.053799510002136 L 20.83329963684082 0.9999995231628418 L 22.5 0.9999995231628418 C 22.61325836181641 0.9999995231628418 22.72219848632813 1.018936514854431 22.82378387451172 1.053799510002136 Z M 3.666499853134155 1.053799510002136 L 2.333699941635132 1.053799510002136 L 1.676015853881836 1.053799510002136 C 1.77760112285614 1.018936514854431 1.886540412902832 0.9999995231628418 1.999799847602844 0.9999995231628418 L 3.666499853134155 0.9999995231628418 L 3.666499853134155 1.053799510002136 Z"/><path class="f" d="M 22.5000057220459 25.66707611083984 L 1.999794602394104 25.66707611083984 C 0.8971104025840759 25.66707611083984 5.127354597789235e-06 24.76996994018555 5.127354597789235e-06 23.66728591918945 L 5.127354597789235e-06 1.999812602996826 C 5.127354597789235e-06 0.8971284627914429 0.8971104025840759 2.318372207810171e-05 1.999794602394104 2.318372207810171e-05 L 4.666478633880615 2.318372207810171e-05 L 4.666478633880615 1.500286340713501 C 4.666478633880615 1.688444256782532 4.692584037780762 1.874654769897461 4.74400520324707 2.053812742233276 L 2.333689451217651 2.053812742233276 L 2.333689451217651 23.6132869720459 L 22.16700553894043 23.6132869720459 L 22.16700553894043 2.053812742233276 L 19.75574111938477 2.053812742233276 C 19.80690002441406 1.875707387924194 19.83332061767578 1.689917922019958 19.83332061767578 1.500286340713501 L 19.83332061767578 2.318372207810171e-05 L 22.5000057220459 2.318372207810171e-05 C 23.60268974304199 2.318372207810171e-05 24.49979400634766 0.8971284627914429 24.49979400634766 1.999812602996826 L 24.49979400634766 23.66728591918945 C 24.49979400634766 24.76996994018555 23.60268974304199 25.66707611083984 22.5000057220459 25.66707611083984 Z"/></g><g class="c" transform="translate(8.667 2)"><rect class="e" width="15.167" height="6.222" rx="2"/><rect class="a" x="0.75" y="0.75" width="13.667" height="4.722" rx="1.25"/></g><g transform="translate(8.667 10.748)"><line class="d" x2="11.667" transform="translate(3.5)"/><line class="d" x2="2.333"/><line class="d" x2="11.667" transform="translate(3.5 6.741)"/><line class="d" x2="2.333" transform="translate(0 6.741)"/><line class="d" x2="11.667" transform="translate(3.5 13.482)"/><line class="d" x2="2.333" transform="translate(0 13.482)"/></g></g></svg>