<svg xmlns="http://www.w3.org/2000/svg" width="16" height="18" viewBox="0 0 16 18"><defs><style>.a{fill:#fff;}</style></defs><path class="a" d="M815.627,117.922v-3.714h-8.3a.664.664,0,0,1-.673-.655v-3.2l-5.831,5.68,5.831,5.68v-3.131h0a.664.664,0,0,1,.673-.655ZM808,119.233v4.151a.656.656,0,0,1-.436.639.684.684,0,0,1-.76-.2l-7.476-7.283a.644.644,0,0,1,0-.947h0l7.551-7.283a.684.684,0,0,1,.76-.2.655.655,0,0,1,.436.639V112.9h8.373a.664.664,0,0,1,.673.655h0v5.025a.664.664,0,0,1-.673.655Z" transform="translate(124.065 -799.122) rotate(90)"/></svg>