<svg xmlns="http://www.w3.org/2000/svg" width="16" height="16" viewBox="0 0 16 16"><defs><style>.a{fill:none;}.b,.c{stroke:none;}.c{fill:#525b67;}</style></defs><g transform="translate(-167.672 -289)"><g class="a" transform="translate(-176.327 -297.01)"><path class="b" d="M355.352,600.01v-8.892a3.688,3.688,0,0,1-1.857.664,8.428,8.428,0,0,0,2.251-3.772A8.851,8.851,0,0,0,358,591.782a4.278,4.278,0,0,1-1.909-.677v8.9Z"/><path class="c" d="M 356.0896911621094 600.0096435546875 L 355.3521423339844 600.0096435546875 L 355.3521423339844 591.1180419921875 C 354.6214904785156 591.5465087890625 354.1449279785156 591.7598876953125 353.4954223632813 591.78173828125 C 354.6152954101563 590.8072509765625 355.1983947753906 589.5404052734375 355.7466735839844 588.0096435546875 C 356.2718811035156 589.5404052734375 356.9129943847656 590.75146484375 357.9988708496094 591.78173828125 C 357.2929382324219 591.7159423828125 356.8665771484375 591.5382080078125 356.0896911621094 591.1048583984375 L 356.0896911621094 600.0096435546875 Z"/></g><g class="a" transform="translate(-171.323 -297.01)"><path class="b" d="M343.642,588.01V596.9a3.687,3.687,0,0,1,1.857-.664,8.429,8.429,0,0,0-2.251,3.772A8.853,8.853,0,0,0,341,596.237a4.279,4.279,0,0,1,1.909.677v-8.9Z"/><path class="c" d="M 342.9045715332031 588.0096435546875 L 343.6421203613281 588.0096435546875 L 343.6421203613281 596.9012451171875 C 344.3727722167969 596.4725341796875 344.8492736816406 596.2593994140625 345.4988708496094 596.2374267578125 C 344.3790283203125 597.2120361328125 343.7958679199219 598.4788818359375 343.2475891113281 600.0096435546875 C 342.7222900390625 598.4788818359375 342.0812683105469 597.267822265625 340.9954223632813 596.2374267578125 C 341.7013244628906 596.30322265625 342.1275939941406 596.48095703125 342.9045715332031 596.914306640625 L 342.9045715332031 588.0096435546875 Z"/></g></g><rect class="a" width="16" height="16"/></svg>