<svg xmlns="http://www.w3.org/2000/svg" width="900" height="380" viewBox="0 0 900 380"><defs><style>.a{font-size:38px;}.a,.d,.e{font-family:NotoSansCJKtc-Regular, Noto Sans CJK TC;}.a,.d{letter-spacing:0.05em;}.b{fill:#eaebef;}.c,.g{fill:none;}.c{stroke:#d3d8de;stroke-width:2px;}.d,.e{fill:#525c68;}.d{font-size:16px;}.e{font-size:14px;}.f{stroke:none;}</style></defs><g transform="translate(-509 -4127)"><text class="a" transform="translate(568 4171)"><tspan x="-58.9" y="0">尺寸表</tspan></text><rect class="b" width="899" height="2" transform="translate(509 4203)"/><g transform="translate(0 4.434)"><rect class="b" width="896.59" height="40" transform="translate(511 4220.787)"/><rect class="b" width="151" height="165" transform="translate(512 4261.491)"/><g class="c" transform="translate(511 4220.566)"><rect class="f" width="898" height="206.22"/><rect class="g" x="1" y="1" width="896" height="204.22"/></g><line class="c" x2="896.59" transform="translate(512.41 4260.721)"/><line class="c" x2="896.59" transform="translate(512.41 4301.406)"/><line class="c" y2="207" transform="translate(663 4220.566)"/><line class="c" y2="207" transform="translate(811.328 4220.566)"/><line class="c" y2="207" transform="translate(960.996 4220.566)"/><line class="c" y2="207" transform="translate(1110.663 4220.566)"/><line class="c" y2="207" transform="translate(1259 4220.566)"/><line class="c" x2="896.59" transform="translate(512.41 4343.198)"/><line class="c" x2="896.59" transform="translate(512.41 4384.989)"/><text class="d" transform="translate(587.775 4246.944)"><tspan x="-24.8" y="0">尺寸表</tspan></text><text class="e" transform="translate(524.375 4458.566)"><tspan x="0" y="0">※單位：吋(1吋=2.54公分)</tspan><tspan x="0" y="20">※以上尺吋為平放攤開測量(來回一圈請乘於2)，誤差±1吋為正常範圍</tspan><tspan x="0" y="40">※平量時需視衣料彈性，再針酌個人穿衣鬆緊度來做選擇！</tspan></text><text class="d" transform="translate(735.283 4246.944)"><tspan x="-9.64" y="0">XS</tspan></text><text class="d" transform="translate(883.944 4246.944)"><tspan x="-4.776" y="0">S</tspan></text><text class="d" transform="translate(1034.605 4246.944)"><tspan x="-6.496" y="0">M</tspan></text><text class="d" transform="translate(1184.27 4246.944)"><tspan x="-4.336" y="0">L</tspan></text><text class="d" transform="translate(1335.775 4246.944)"><tspan x="-9.32" y="0">XL</tspan></text><text class="d" transform="translate(735.282 4287.702)"><tspan x="-9.28" y="0">43</tspan></text><text class="d" transform="translate(883.945 4287.702)"><tspan x="-9.28" y="0">50</tspan></text><text class="d" transform="translate(1034.604 4287.702)"><tspan x="-9.28" y="0">54</tspan></text><text class="d" transform="translate(1184.264 4287.702)"><tspan x="-9.28" y="0">58</tspan></text><text class="d" transform="translate(1335.775 4287.702)"><tspan x="-9.28" y="0">60</tspan></text><text class="d" transform="translate(735.282 4329.476)"><tspan x="-9.28" y="0">43</tspan></text><text class="d" transform="translate(883.945 4329.476)"><tspan x="-9.28" y="0">50</tspan></text><text class="d" transform="translate(1034.604 4329.476)"><tspan x="-9.28" y="0">54</tspan></text><text class="d" transform="translate(1184.264 4329.476)"><tspan x="-9.28" y="0">58</tspan></text><text class="d" transform="translate(1335.775 4329.476)"><tspan x="-9.28" y="0">60</tspan></text><text class="d" transform="translate(735.282 4371.25)"><tspan x="-9.28" y="0">43</tspan></text><text class="d" transform="translate(883.945 4371.25)"><tspan x="-9.28" y="0">50</tspan></text><text class="d" transform="translate(1034.604 4371.25)"><tspan x="-9.28" y="0">54</tspan></text><text class="d" transform="translate(1184.264 4371.25)"><tspan x="-9.28" y="0">58</tspan></text><text class="d" transform="translate(1335.775 4371.25)"><tspan x="-9.28" y="0">60</tspan></text><text class="d" transform="translate(735.282 4411.035)"><tspan x="-9.28" y="0">43</tspan></text><text class="d" transform="translate(883.945 4411.035)"><tspan x="-9.28" y="0">50</tspan></text><text class="d" transform="translate(1034.604 4411.035)"><tspan x="-9.28" y="0">54</tspan></text><text class="d" transform="translate(1184.264 4411.035)"><tspan x="-9.28" y="0">58</tspan></text><text class="d" transform="translate(1335.775 4411.035)"><tspan x="-9.28" y="0">60</tspan></text><text class="d" transform="translate(587.775 4287.702)"><tspan x="-16.4" y="0">肩寬</tspan></text><text class="d" transform="translate(588.775 4329.476)"><tspan x="-16.4" y="0">胸圍</tspan></text><text class="d" transform="translate(588.775 4371.25)"><tspan x="-16.4" y="0">腰圍</tspan></text><text class="d" transform="translate(587.775 4413.024)"><tspan x="-16.4" y="0">身長</tspan></text></g></g></svg>